<?xml version="1.0" encoding="UTF-8"?>
<svg version="1.1" viewBox="0 0 131 131" xmlns="http://www.w3.org/2000/svg" xmlns:cc="http://creativecommons.org/ns#" xmlns:dc="http://purl.org/dc/elements/1.1/" xmlns:rdf="http://www.w3.org/1999/02/22-rdf-syntax-ns#">
  <metadata>
    <rdf:RDF>
      <cc:Work rdf:about="">
        <dc:format>image/svg+xml</dc:format>
        <dc:type rdf:resource="http://purl.org/dc/dcmitype/StillImage"/>
        <dc:title>Monogram</dc:title>
      </cc:Work>
    </rdf:RDF>
  </metadata>
  <g transform="translate(-31,-30.5)" fill="none">
    <path d="m46.534 65.216c0.16276-1.6081-0.45048-3.1975-1.6513-4.2798l-12.232-14.735v-2.2011h37.979l29.356 64.381 25.809-64.381h36.205v2.2011l-10.458 10.027c-0.9016 0.68725-1.3488 1.8168-1.162 2.9347v73.674c-0.18683 1.118 0.2604 2.2475 1.162 2.9348l10.213 10.027v2.2011h-51.373v-2.2011l10.58-10.272c1.0397-1.0394 1.0397-1.3451 1.0397-2.9348v-59.551l-29.417 74.714h-3.9753l-34.248-74.714v50.074c-0.28555 2.1053 0.41364 4.2248 1.8959 5.7472l13.761 16.691v2.2011h-39.019v-2.2011l13.761-16.691c1.4715-1.5249 2.1299-3.6585 1.7736-5.7472v-57.9z" fill="#fff"/>
  </g>
</svg>
