<?xml version="1.0" encoding="UTF-8"?>
<svg width="11.493mm" height="11.493mm" version="1.1" viewBox="0 0 40.723759 40.723758" xmlns="http://www.w3.org/2000/svg" xmlns:cc="http://creativecommons.org/ns#" xmlns:dc="http://purl.org/dc/elements/1.1/" xmlns:rdf="http://www.w3.org/1999/02/22-rdf-syntax-ns#">
  <metadata>
    <rdf:RDF>
      <cc:Work rdf:about="">
        <dc:format>image/svg+xml</dc:format>
        <dc:type rdf:resource="http://purl.org/dc/dcmitype/StillImage"/>
        <dc:title/>
      </cc:Work>
    </rdf:RDF>
  </metadata>
  <g transform="translate(-351.69 -505.82)">
    <path d="m372.05 506.32c-11.242 0-20.36 9.1162-20.36 20.362 0 8.9962 5.8338 16.628 13.925 19.32 1.0188 0.1875 1.39-0.44125 1.39-0.98125 0-0.48375-0.0175-1.7638-0.0275-3.4625-5.6638 1.23-6.8588-2.73-6.8588-2.73-0.92625-2.3525-2.2612-2.9788-2.2612-2.9788-1.8488-1.2625 0.14-1.2375 0.14-1.2375 2.0438 0.14375 3.1188 2.0988 3.1188 2.0988 1.8162 3.1112 4.7662 2.2125 5.9262 1.6912 0.185-1.315 0.71125-2.2125 1.2925-2.7212-4.5212-0.51375-9.275-2.2612-9.275-10.064 0-2.2225 0.79375-4.0412 2.0962-5.4638-0.21-0.515-0.90875-2.5862 0.2-5.3888 0 0 1.7088-0.5475 5.5988 2.0875 1.6238-0.4525 3.3662-0.6775 5.0975-0.68625 1.73 9e-3 3.4712 0.23375 5.0975 0.68625 3.8875-2.635 5.5938-2.0875 5.5938-2.0875 1.1112 2.8025 0.4125 4.8738 0.20375 5.3888 1.305 1.4225 2.0925 3.2412 2.0925 5.4638 0 7.8225-4.7612 9.5438-9.2962 10.048 0.73 0.62875 1.3812 1.8712 1.3812 3.77 0 2.7225-0.025 4.9188-0.025 5.5862 0 0.545 0.3675 1.1788 1.4 0.98 8.085-2.6988 13.914-10.325 13.914-19.319 0-11.246-9.1175-20.362-20.364-20.362" fill="#fff" fill-rule="evenodd"/>
  </g>
</svg>
