<?xml version="1.0" encoding="UTF-8"?>
<svg width="12.7mm" height="12.7mm" version="1.1" viewBox="0 0 44.999999 44.999999" xmlns="http://www.w3.org/2000/svg" xmlns:cc="http://creativecommons.org/ns#" xmlns:dc="http://purl.org/dc/elements/1.1/" xmlns:rdf="http://www.w3.org/1999/02/22-rdf-syntax-ns#">
  <metadata>
    <rdf:RDF>
      <cc:Work rdf:about="">
        <dc:format>image/svg+xml</dc:format>
        <dc:type rdf:resource="http://purl.org/dc/dcmitype/StillImage"/>
        <dc:title/>
      </cc:Work>
    </rdf:RDF>
  </metadata>
  <g transform="translate(-349.55 -503.68)">
    <path d="m387.89 542.03h-6.6725v-10.443c0-2.4908-0.0437-5.6944-3.4688-5.6944-3.4725 0-4.0025 2.7144-4.0025 5.5156v10.622h-6.6662v-21.475h6.3975v2.9355h0.0913c0.89-1.688 3.0688-3.4682 6.3162-3.4682 6.7562 0 8.005 4.4464 8.005 10.23v11.777zm-28.336-24.409c-2.1438 0-3.8712-1.7339-3.8712-3.8706 0-2.1361 1.7275-3.8705 3.8712-3.8705 2.135 0 3.8688 1.7344 3.8688 3.8705 0 2.1368-1.7338 3.8706-3.8688 3.8706zm3.3388 24.409h-6.68v-21.475h6.68v21.475zm28.321-38.345h-38.35c-1.8312 0-3.32 1.4526-3.32 3.2446v38.508c0 1.792 1.4888 3.2471 3.32 3.2471h38.35c1.8362 0 3.3288-1.4551 3.3288-3.2471v-38.508c0-1.792-1.4925-3.2446-3.3288-3.2446" fill="#fff"/>
  </g>
</svg>
